<mxfile host="app.diagrams.net" modified="2024-02-29T00:53:33.857Z" agent="Mozilla/5.0 (X11; Linux x86_64; rv:123.0) Gecko/20100101 Firefox/123.0" version="23.1.8" etag="b7g2CNx3VOANZPGMHD9Y" type="github">
  <diagram name="Page-1" id="iIPBd8_uQLL55bU6xYDv">
    <mxGraphModel>
      <root>
        <mxCell id="0" />
        <mxCell id="1" parent="0" />
      </root>
    </mxGraphModel>
  </diagram>
</mxfile>
